<svg width="288"
     height="192"
     xmlns="http://www.w3.org/2000/svg"
     overflow="hidden">
    <defs>
        <filter id="prefix__a"
                x="-10%"
                y="-10%"
                width="120%"
                height="120%"
                filterUnits="userSpaceOnUse"
                primitiveUnits="userSpaceOnUse">
            <feComponentTransfer color-interpolation-filters="sRGB">
                <feFuncR type="discrete"
                         tableValues="0 0" />
                <feFuncG type="discrete"
                         tableValues="0 0" />
                <feFuncB type="discrete"
                         tableValues="0 0" />
                <feFuncA type="linear"
                         slope=".302" />
            </feComponentTransfer>
            <feGaussianBlur stdDeviation="2.04706 2.04706" />
        </filter>
        <filter id="prefix__b"
                x="-10%"
                y="-10%"
                width="120%"
                height="120%"
                filterUnits="userSpaceOnUse"
                primitiveUnits="userSpaceOnUse">
            <feComponentTransfer color-interpolation-filters="sRGB">
                <feFuncR type="discrete"
                         tableValues="0 0" />
                <feFuncG type="discrete"
                         tableValues="0 0" />
                <feFuncB type="discrete"
                         tableValues="0 0" />
                <feFuncA type="linear"
                         slope=".302" />
            </feComponentTransfer>
            <feGaussianBlur stdDeviation="2.04706 2.04706" />
        </filter>
    </defs>
    <path fill="none" 
          d="M0 0h288v192H0z" />
    <g filter="url(#prefix__a)"
       transform="translate(104 9)">
        <path d="M65.558 33.492L47.686 87.203h35.84l-17.87-53.71zm.39-24.707c3.841 0 6.901.05 9.18.147 2.278.097 4.052.325 5.322.683 1.27.358 2.181.896 2.734 1.612.554.716 1.026 1.692 1.416 2.93l39.063 112.011c.781 2.344 1.269 4.199 1.465 5.567.195 1.367-.065 2.392-.781 3.076-.717.683-1.986 1.106-3.809 1.269-1.823.163-4.329.244-7.52.244-3.32 0-5.908-.048-7.763-.146-1.856-.098-3.272-.293-4.248-.586-.977-.293-1.66-.7-2.051-1.221-.39-.521-.716-1.204-.977-2.051l-8.496-25.39h-47.46l-8.009 24.707c-.26.911-.602 1.676-1.025 2.295-.423.618-1.107 1.107-2.05 1.465-.945.358-2.28.602-4.005.732s-3.987.195-6.787.195c-2.994 0-5.338-.097-7.03-.293-1.694-.195-2.866-.667-3.517-1.416-.65-.748-.878-1.806-.683-3.173.195-1.368.683-3.191 1.465-5.469l38.965-112.11c.39-1.106.846-2.002 1.367-2.685.52-.684 1.35-1.205 2.49-1.563 1.14-.358 2.718-.586 4.736-.683 2.019-.098 4.688-.147 8.008-.147z"
              stroke="#5B9BD5"
              stroke-linejoin="round"
              stroke-miterlimit="10"
              fill-rule="evenodd" />
    </g>
    <path d="M169.557 38.903l-17.871 53.71h35.84l-17.871-53.71zm.391-24.707c3.841 0 6.901.049 9.18.146 2.278.098 4.053.326 5.322.684 1.27.358 2.181.895 2.734 1.611.554.716 1.026 1.693 1.416 2.93l39.063 112.012c.781 2.343 1.269 4.199 1.465 5.566.195 1.367-.065 2.393-.781 3.076-.717.684-1.986 1.107-3.809 1.27-1.823.162-4.329.244-7.52.244-3.32 0-5.908-.049-7.763-.147-1.856-.097-3.272-.293-4.248-.586-.977-.293-1.66-.699-2.051-1.22-.391-.521-.716-1.205-.977-2.051l-8.496-25.391h-47.461l-8.007 24.707c-.261.912-.603 1.677-1.026 2.295-.423.619-1.107 1.107-2.051 1.465-.944.358-2.278.602-4.004.733-1.725.13-3.987.195-6.787.195-2.994 0-5.338-.098-7.031-.293-1.693-.195-2.865-.667-3.516-1.416-.651-.749-.878-1.807-.683-3.174.195-1.367.683-3.19 1.465-5.469l38.965-112.11c.39-1.106.846-2.001 1.367-2.685.521-.683 1.351-1.204 2.49-1.562 1.139-.358 2.718-.586 4.736-.684 2.019-.097 4.688-.146 8.008-.146z"
          stroke="#5B9BD5"
          stroke-linejoin="round"
          stroke-miterlimit="10"
          fill="#bebe1c"
          fill-rule="evenodd" /><text fill-opacity="0"
          font-family="Arial,Arial_MSFontService,sans-serif"
          font-size="127.539"
          x="112.849"
          y="125.792">A</text>
    <g filter="url(#prefix__b)"
       transform="translate(52 10)">
        <path d="M34.455 28.488v85.938h13.378c7.032 0 12.956-.912 17.774-2.734 4.818-1.823 8.838-4.574 12.06-8.252 3.223-3.679 5.632-8.252 7.227-13.721 1.595-5.469 2.393-11.85 2.393-19.14 0-5.99-.7-11.557-2.1-16.7-1.4-5.143-3.646-9.603-6.738-13.379-3.093-3.776-7.064-6.722-11.914-8.838-4.85-2.116-11.215-3.174-19.092-3.174zM16.485 8.371h32.423c11.263 0 20.817 1.319 28.662 3.955 7.845 2.637 14.453 6.543 19.824 11.72 5.371 5.175 9.456 11.571 12.256 19.188 2.799 7.618 4.199 16.44 4.199 26.465 0 11.589-1.514 21.501-4.541 29.737-3.027 8.235-7.373 14.957-13.037 20.166-5.664 5.208-12.549 9.033-20.654 11.474-8.106 2.442-17.758 3.662-28.955 3.662H16.486c-2.149 0-3.955-.634-5.42-1.904-1.465-1.269-2.197-3.336-2.197-6.201V16.477c0-2.865.732-4.932 2.197-6.202 1.465-1.269 3.271-1.904 5.42-1.904z"
              stroke="#5B9BD5"
              stroke-linejoin="round"
              stroke-miterlimit="10"
              fill="#bebe1c"
              fill-rule="evenodd" />
    </g>
    <path d="M86.454 34.899v85.937h13.38c7.031 0 12.955-.911 17.773-2.734s8.838-4.574 12.06-8.252c3.223-3.678 5.632-8.252 7.227-13.72 1.595-5.47 2.393-11.85 2.393-19.141 0-5.99-.7-11.556-2.1-16.7-1.4-5.143-3.646-9.602-6.738-13.378-3.093-3.776-7.064-6.722-11.914-8.838-4.851-2.116-11.215-3.174-19.092-3.174zM68.486 14.782h32.422c11.263 0 20.817 1.318 28.662 3.955 7.845 2.637 14.453 6.543 19.824 11.719 5.371 5.175 9.456 11.572 12.256 19.189 2.799 7.617 4.199 16.439 4.199 26.465 0 11.588-1.514 21.5-4.541 29.736s-7.373 14.958-13.037 20.166c-5.664 5.208-12.549 9.033-20.654 11.475-8.106 2.441-17.758 3.662-28.955 3.662H68.486c-2.149 0-3.955-.635-5.42-1.904-1.465-1.27-2.197-3.337-2.197-6.202V22.887c0-2.864.732-4.931 2.197-6.201 1.465-1.27 3.271-1.904 5.42-1.904z"
          stroke="#5B9BD5"
          stroke-linejoin="round"
          stroke-miterlimit="10"
          fill="#949494"
          fill-rule="evenodd" /><text fill-opacity="0"
          font-family="Arial,Arial_MSFontService,sans-serif"
          font-size="126.367"
          x="60.869"
          y="125.353">D</text><text font-family="Fira Code SemiBold,Fira Code SemiBold_MSFontService,sans-serif"
          font-weight="600"
          fill="#949494"
          font-size="24"
          transform="translate(48.813 178)">Dhuruvah</text><text
          font-family="Fira Code SemiBold,Fira Code SemiBold_MSFontService,sans-serif"
          font-weight="600"
          font-size="24"
          fill="#bebe1c"
          transform="translate(182.313 178)">Apps</text>
</svg>